<svg width="146" height="44" viewBox="0 0 146 44" fill="none" xmlns="http://www.w3.org/2000/svg">
<path d="M14.16 34.44C9.62667 34.44 6.16 33.0933 3.76 30.4C1.36 27.68 0.16 23.9733 0.16 19.28C0.16 16.1867 0.786667 13.4933 2.04 11.2C3.32 8.88 5.06667 7.09333 7.28 5.84C9.49333 4.58666 12 3.96 14.8 3.96C15.9733 3.96 17.1067 4.04 18.2 4.2C19.2933 4.33333 20.5867 4.52 22.08 4.76C23.2 4.94667 23.8133 5.04 23.92 5.04L23.48 13.28H19.8L18.56 7.56C18.2667 7.26667 17.76 7.02667 17.04 6.84C16.32 6.65333 15.4 6.56 14.28 6.56C12.0133 6.56 10.1867 7.61333 8.8 9.72C7.44 11.8 6.76 14.8267 6.76 18.8C6.76 22.64 7.41333 25.7733 8.72 28.2C10.0267 30.6267 11.9333 31.84 14.44 31.84C15.64 31.84 16.56 31.7333 17.2 31.52C17.8667 31.28 18.4267 30.9467 18.88 30.52L20.64 26.4L24 26.72L23.2 32.92C22.64 32.9733 22.08 33.08 21.52 33.24C20.9867 33.3733 20.6533 33.4533 20.52 33.48C19.4533 33.7733 18.4533 34 17.52 34.16C16.6133 34.3467 15.4933 34.44 14.16 34.44ZM26.6881 27.76C26.6881 25.3333 27.9015 23.5067 30.3281 22.28C32.7815 21.0533 35.9415 20.4267 39.8081 20.4V19.48C39.8081 18.3867 39.6881 17.5333 39.4481 16.92C39.2348 16.3067 38.8215 15.8533 38.2081 15.56C37.6215 15.24 36.7548 15.08 35.6081 15.08C34.3015 15.08 33.1281 15.2533 32.0881 15.6C31.0481 15.92 29.9681 16.3467 28.8481 16.88L27.6081 14.32C28.0081 13.9733 28.6748 13.56 29.6081 13.08C30.5681 12.6 31.7015 12.1867 33.0081 11.84C34.3148 11.4667 35.6615 11.28 37.0481 11.28C39.1015 11.28 40.7015 11.5467 41.8481 12.08C43.0215 12.6133 43.8615 13.4667 44.3681 14.64C44.8748 15.8133 45.1281 17.3867 45.1281 19.36V31.6H47.2881V33.84C46.7548 33.9733 45.9948 34.1067 45.0081 34.24C44.0215 34.3733 43.1548 34.44 42.4081 34.44C41.5015 34.44 40.8881 34.3067 40.5681 34.04C40.2748 33.7733 40.1281 33.2267 40.1281 32.4V31.32C39.4081 32.12 38.4748 32.84 37.3281 33.48C36.1815 34.12 34.8881 34.44 33.4481 34.44C32.2215 34.44 31.0881 34.1867 30.0481 33.68C29.0348 33.1467 28.2215 32.3867 27.6081 31.4C26.9948 30.3867 26.6881 29.1733 26.6881 27.76ZM36.0081 31.12C36.5681 31.12 37.2081 30.96 37.9281 30.64C38.6481 30.2933 39.2748 29.88 39.8081 29.4V22.84C37.4081 22.84 35.6081 23.2533 34.4081 24.08C33.2348 24.88 32.6481 25.92 32.6481 27.2C32.6481 28.48 32.9415 29.4533 33.5281 30.12C34.1415 30.7867 34.9681 31.12 36.0081 31.12ZM49.7844 31.64L52.4244 31.32V15.56L49.8644 14.84V12.08L56.0644 11.24H56.1844L57.1844 12.04V12.92L57.0644 16.16H57.1844C57.371 15.6267 57.811 14.9733 58.5044 14.2C59.1977 13.4 60.0644 12.7067 61.1044 12.12C62.171 11.5067 63.3177 11.2 64.5444 11.2C65.131 11.2 65.6377 11.28 66.0644 11.44V17.44C65.2644 16.88 64.291 16.6 63.1444 16.6C61.1977 16.6 59.5044 17.12 58.0644 18.16V31.28L62.7044 31.64V34H49.7844V31.64ZM76.9725 34.44C75.3192 34.44 73.8392 34.0533 72.5325 33.28C71.2258 32.48 70.1858 31.2533 69.4125 29.6C68.6392 27.9467 68.2525 25.88 68.2525 23.4C68.2525 21.16 68.7058 19.12 69.6125 17.28C70.5458 15.4133 71.9058 13.9333 73.6925 12.84C75.4792 11.7467 77.6258 11.2 80.1325 11.2C81.1458 11.2 82.1058 11.3067 83.0125 11.52V4.76L79.0925 4.2V2L87.3325 1.2H87.4525L88.5725 2.04V31.56H90.7325V33.84C88.8125 34.24 87.2258 34.44 85.9725 34.44C85.1192 34.44 84.5058 34.2933 84.1325 34C83.7858 33.7333 83.6125 33.1867 83.6125 32.36V31.24C82.9192 32.1733 81.9725 32.9467 80.7725 33.56C79.5725 34.1467 78.3058 34.44 76.9725 34.44ZM79.0525 31.12C79.9325 31.12 80.7058 30.9467 81.3725 30.6C82.0658 30.2267 82.6125 29.7867 83.0125 29.28V14.72C82.8258 14.4533 82.4258 14.2267 81.8125 14.04C81.2258 13.8533 80.5858 13.76 79.8925 13.76C78.1858 13.76 76.8125 14.5067 75.7725 16C74.7592 17.4667 74.2525 19.8267 74.2525 23.08C74.2525 25.8 74.6925 27.8267 75.5725 29.16C76.4525 30.4667 77.6125 31.12 79.0525 31.12ZM98.4116 8.12C97.4516 8.12 96.6916 7.84 96.1316 7.28C95.5716 6.72 95.2916 6 95.2916 5.12C95.2916 4.10666 95.6116 3.26666 96.2516 2.6C96.8916 1.93333 97.7449 1.6 98.8116 1.6C99.8782 1.6 100.692 1.89333 101.252 2.48C101.812 3.04 102.092 3.74667 102.092 4.6C102.092 5.66667 101.772 6.52 101.132 7.16C100.492 7.8 99.5982 8.12 98.4516 8.12H98.4116ZM96.2916 15.56L93.4516 14.8V12.12L100.772 11.24H100.852L101.972 12.04V31.28L104.652 31.6V34H93.4916V31.6L96.2916 31.24V15.56ZM110.279 14.88H106.919V12.64L110.279 11.84V10.08C110.279 8.34666 110.732 6.76 111.639 5.32C112.572 3.88 113.812 2.74667 115.359 1.92C116.905 1.06666 118.545 0.639998 120.279 0.639998C121.185 0.639998 122.039 0.773331 122.839 1.04V6.16C122.572 5.89333 122.039 5.62667 121.239 5.36C120.465 5.09333 119.652 4.96 118.799 4.96C117.759 4.96 117.012 5.22667 116.559 5.76C116.132 6.26667 115.919 7.14667 115.919 8.4V11.8H120.999V14.88H115.919V31.28L120.119 31.6V34H107.119V31.6L110.279 31.24V14.88ZM127.407 43.96C126.927 43.96 126.407 43.92 125.847 43.84C125.314 43.76 124.927 43.6667 124.687 43.56V39.28C124.874 39.3867 125.247 39.4933 125.807 39.6C126.367 39.7067 126.874 39.76 127.327 39.76C128.66 39.76 129.754 39.32 130.607 38.44C131.487 37.56 132.3 36.08 133.047 34H130.887L123.367 14.6L121.567 14.08V11.76H132.567V14.08L129.647 14.56L133.207 25.64L134.647 30.36L135.887 25.64L139.167 14.56L136.647 14.08V11.76H145.327V14.08L143.367 14.56C141.9 19.04 140.447 23.36 139.007 27.52C137.567 31.68 136.727 34.0133 136.487 34.52C135.634 36.76 134.82 38.5467 134.047 39.88C133.274 41.2133 132.354 42.2267 131.287 42.92C130.22 43.6133 128.927 43.96 127.407 43.96Z" fill="#1565C0"/>
</svg>
